# AST/ASF file generated using VICON BodyLanguage
# -----------------------------------------------
:version 1.10
:name VICON
:units
  mass 1.0
  length 0.45
  angle deg
:documentation
   .ast/.asf automatically generated from VICON data using
   VICON BodyBuilder and BodyLanguage model FoxedUp or BRILLIANT.MOD
:root
   order TX TY TZ RX RY RZ
   axis XYZ
   position 0 0 0  
   orientation 0 0 0 
:bonedata
  begin
     id 1 
     name lhipjoint
     direction 0.62366 -0.717238 0.310833 
     length 2.53602 
     axis 0 0 0  XYZ
  end
  begin
     id 2 
     name lfemur
     direction 0.34202 -0.939693 0  
     length 7.40817  
     axis 0 0 20  XYZ
    dof rx ry rz
    limits (-160.0 20.0)
           (-70.0 70.0)
           (-60.0 70.0)
  end
  begin
     id 3 
     name ltibia
     direction 0.34202 -0.939693 0   
     length 7.7045   
     axis 0 0 20   XYZ
    dof rx
    limits (-10.0 170.0)
  end
  begin
     id 4 
     name lfoot
     direction 0.0673888 -0.185149 0.980397   
     length 2.09456   
     axis -90 7.62852e-016 20   XYZ
    dof rx rz
    limits (-45.0 90.0)
           (-70.0 20.0)
  end
  begin
     id 5 
     name ltoes
     direction 1.53575e-011 -4.21994e-011 1   
     length 1.05543   
     axis -90 7.62852e-016 20   XYZ
    dof rx
    limits (-90.0 20.0)
  end
  begin
     id 6 
     name rhipjoint
     direction -0.489018 -0.800347 0.346851   
     length 2.27268  
     axis 0 0 0  XYZ 
  end
  begin
     id 7 
     name rfemur
     direction -0.34202 -0.939693 0   
     length 7.55487   
     axis 0 0 -20   XYZ
    dof rx ry rz
    limits (-160.0 20.0)
           (-70.0 70.0)
           (-70.0 60.0)
  end
  begin
     id 8 
     name rtibia
     direction -0.34202 -0.939693 0   
     length 7.78969   
     axis 0 0 -20   XYZ
    dof rx
    limits (-10.0 170.0)
 end
 begin
     id 9 
     name rfoot
     direction -0.0859318 -0.236096 0.967923   
     length 2.19143  
     axis -90 -7.62852e-016 -20   XYZ
    dof rx rz
    limits (-45.0 90.0)
           (-20.0 70.0)
  end
  begin
     id 10 
     name rtoes
     direction -1.53538e-011 -4.21989e-011 1   
     length 1.09845   
     axis -90 -7.62852e-016 -20   XYZ
    dof rx
    limits (-90.0 20.0)
  end
  begin
     id 11 
     name lowerback
     direction -0.00762546 0.998978 -0.0445553   
     length 1.98161   
     axis 0 0 0   XYZ
    dof rx ry rz
    limits (-20.0 45.0)
           (-30.0 30.0)
           (-30.0 30.0)
  end
  begin
     id 12 
     name upperback
     direction 0.0422361 0.998867 -0.0219156   
     length 1.97558   
     axis 0 0 0   XYZ
    dof rx ry rz
    limits (-20.0 45.0)
           (-30.0 30.0)
           (-30.0 30.0)
  end
  begin
     id 13 
     name thorax
     direction 0.0442465 0.999021 7.47603e-005   
     length 1.97799   
     axis 0 0 0   XYZ
    dof rx ry rz
    limits (-20.0 45.0)
           (-30.0 30.0)
           (-30.0 30.0)
  end
  begin
     id 14 
     name lowerneck
     direction 0.00312169 0.984641 0.174564   
     length 1.78995   
     axis 0 0 0   XYZ
    dof rx ry rz
    limits (-20.0 45.0)
           (-30.0 30.0)
           (-30.0 30.0)
  end
  begin
     id 15 
     name upperneck
     direction -0.0383028 0.985255 -0.166749   
     length 1.83053   
     axis 0 0 0   XYZ
    dof rx ry rz
    limits (-20.0 45.0)
           (-30.0 30.0)
           (-30.0 30.0)
  end
  begin
     id 16
     name head
     direction -0.0129546 0.997059 -0.0755386  
     length 1.84088  
     axis 0 0 0   XYZ
    dof rx ry rz
    limits (-20.0 45.0)
           (-30.0 30.0)
           (-30.0 30.0)
  end
  begin
     id 17 
     name lclavicle
     direction 0.912857 0.370519 -0.171488  
     length 3.51279  
     axis 0 0 0   XYZ
    dof ry rz
    limits (-20.0 10.0)
           (0.0 20.0)
  end
  begin
     id 18 
     name lhumerus
     direction 1 -4.48962e-011 3.64361e-027   
     length 4.95663   
     axis 180 -30 -90   XYZ
    dof rx ry rz
    limits (-60.0 90.0)
           (-90.0 90.0)
           (-90.0 90.0)
  end
  begin
     id 19
     name lradius
     direction 1 -4.48974e-011 5.97202e-027   
     length 3.38177   
     axis 180 -30 -90   XYZ
    dof rx
    limits (-10.0 170.0)
  end
  begin
     id 20
     name lwrist
     direction 1 -4.4896e-011 9.83288e-027   
     length 1.69088   
     axis -9.31221e-015 90 90   XYZ
    dof ry
    limits (-180.0 0.0)
 end
  begin
     id 21 
     name lhand
     direction 1 -4.4902e-011 1.96551e-026   
     length 0.662909   
     axis -1.25475e-014 90 90   XYZ
    dof rx rz
    limits (-90.0 90.0)
           (-45.0 45.0)
  end
  begin
     id 22 
     name lfingers
     direction 1 -4.48971e-011 3.93277e-026   
     length 0.534454   
     axis -2.50945e-014 90 90   XYZ
    dof rx
    limits (0.0 90.0)
  end
  begin
     id 23
     name lthumb
     direction 0.707107 -6.34933e-011 0.707107   
     length 0.767373   
     axis -90 45 -4.80359e-014   XYZ
    dof rx rz
    limits (-45.0 45.0)
           (-45.0 45.0)
  end
  begin
     id 24 
     name rclavicle
     direction -0.900919 0.395364 -0.178976   
     length 3.40627  
     axis 0 0 0   XYZ 
    dof ry rz
    limits (-10.0 20.0)
           (-20.0 0.0)
  end
  begin
     id 25 
     name rhumerus
     direction -1 -4.48969e-011 1.03875e-027  
     length 5.08365   
     axis 180 30 90   XYZ
    dof rx ry rz
    limits (-90.0 60.0)
           (-90.0 90.0)
           (-90.0 90.0)
  end
  begin
     id 26 
     name rradius
     direction -1 -4.48951e-011 5.02733e-027   
     length 3.35984   
     axis 180 30 90   XYZ
    dof rx
    limits (-10.0 170.0)
  end
  begin
     id 27 
     name rwrist
     direction -1 -4.49011e-011 9.82828e-027   
     length 1.67992   
     axis -9.31221e-015 -90 -90   XYZ
    dof ry
    limits (-180.0 0.0)
  end
  begin
     id 28
     name rhand
     direction -1 -4.48894e-011 1.96774e-026   
     length 0.820764   
     axis -1.25475e-014 -90 -90   XYZ
    dof rx rz
    limits (-90.0 90.0)
           (-45.0 45.0)
  end
  begin
     id 29
     name rfingers
     direction -1 -4.49095e-011 3.92833e-026   
     length 0.661721   
     axis -2.50945e-014 -90 -90   XYZ
    dof rx
    limits (0.0 90.0)
  end
  begin
     id 30
     name rthumb
     direction -0.707107 -6.34881e-011 0.707107   
     length 0.950103   
     axis -90 -45 4.80359e-014   XYZ
    dof rx rz
    limits (-45.0 45.0)
           (-45.0 45.0)
  end
:hierarchy
  begin
    root lhipjoint rhipjoint lowerback
    lhipjoint lfemur
    lfemur ltibia
    ltibia lfoot
    lfoot ltoes
    rhipjoint rfemur
    rfemur rtibia
    rtibia rfoot
    rfoot rtoes
    lowerback upperback
    upperback thorax
    thorax lowerneck lclavicle rclavicle
    lowerneck upperneck
    upperneck head
    lclavicle lhumerus
    lhumerus lradius
    lradius lwrist
    lwrist lhand lthumb
    lhand lfingers
    rclavicle rhumerus
    rhumerus rradius
    rradius rwrist
    rwrist rhand rthumb
    rhand rfingers
  end

#!OML:ASF I:\golf\golf\golf 2\Subject 1\2002-09-07\Subject1.ASF
:FULLY-SPECIFIED
:DEGREES
1
root -8.16566 17.8158 0.146006 -116.894 85.8801 -130.881
lowerback 3.80728 1.52494 -1.44853
upperback 4.50541 2.09874 4.34254
thorax 2.3001 1.00833 5.27456
lowerneck -15.7017 -2.16117 2.03642
upperneck 38.7236 -0.362431 -4.49229
head 16.549 0.0627655 -2.26185
rclavicle -1.78906e-014 -6.12257e-014
rhumerus -0.533717 -2.79146 -100.091
rradius 18.7316
rwrist -30.7909
rhand -13.666 -8.80146
rfingers 7.12502
rthumb 12.4512 -38.4106
lclavicle -1.78906e-014 -6.12257e-014
lhumerus -5.78959 -38.138 110.035
lradius 25.3158
lwrist 42.6694
lhand 168.525 61.9453
lfingers 7.12502
lthumb -165.437 32.4765
rfemur -26.141 -0.134458 11.3328
rtibia 26.7174
rfoot -9.02143 -11.1765
rtoes -4.58422
lfemur -28.6344 5.7938 -8.59903
ltibia 27.8771
lfoot -9.63025 -2.54263
ltoes -23.0766
2
root -8.16503 17.8186 0.14566 -116.641 85.8892 -130.636
lowerback 3.78679 1.51333 -1.45512
upperback 4.51044 2.08274 4.3386
thorax 2.31836 0.999691 5.27539
lowerneck -15.7118 -2.15514 2.01787
upperneck 38.7486 -0.344071 -4.49197
head 16.5661 0.0681955 -2.25606
rclavicle 3.53837e-014 2.22639e-014
rhumerus -0.502007 -3.07312 -100.135
rradius 18.6777
rwrist -30.6502
rhand -13.4445 -8.76342
rfingers 7.12502
rthumb 12.6647 -38.3594
lclavicle 3.53837e-014 2.22639e-014
lhumerus -5.77872 -38.1124 110.036
lradius 25.2821
lwrist 42.5269
lhand 168.516 61.936
lfingers 7.12502
lthumb -165.445 32.4666
rfemur -26.1175 -0.132609 11.3329
rtibia 26.6484
rfoot -8.98091 -11.1333
rtoes -4.24637
lfemur -28.6207 5.68703 -8.55037
ltibia 27.9176
lfoot -9.62481 -2.51757
ltoes -22.046
3
root -8.16428 17.8207 0.14591 -116.523 85.9252 -130.491
lowerback 3.79929 1.51214 -1.50111
upperback 4.52733 2.08029 4.3348
thorax 2.32792 0.996913 5.29774
lowerneck -15.715 -2.15339 2.02319
upperneck 38.7547 -0.328609 -4.52615
head 16.5708 0.0707056 -2.26973
rclavicle 3.4191e-014 2.3059e-014
rhumerus -0.501269 -3.20691 -100.134
rradius 18.6958
rwrist -30.5702
rhand -13.267 -8.81521
rfingers 7.12502
rthumb 12.8358 -38.4006
lclavicle 3.4191e-014 2.3059e-014
lhumerus -5.76804 -38.0861 110.065
lradius 25.242
lwrist 42.3791
lhand 168.551 61.9936
lfingers 7.12502
lthumb -165.412 32.5266
rfemur -26.0761 -0.130924 11.3193
rtibia 26.6133
rfoot -8.96482 -11.1478
rtoes -4.57618
lfemur -28.5456 5.57699 -8.52088
ltibia 27.9457
lfoot -9.59792 -2.57459
ltoes -20.3727
4
root -8.16345 17.8193 0.146108 -116.716 85.9289 -130.671
lowerback 3.79249 1.50712 -1.53154
upperback 4.54259 2.07315 4.34515
thorax 2.34713 0.991983 5.32683
lowerneck -15.708 -2.16176 2.01705
upperneck 38.7431 -0.329804 -4.5521
head 16.5628 0.0653878 -2.27992
rclavicle -6.75868e-015 -3.02153e-014
rhumerus -0.558048 -2.81818 -100.065
rradius 18.8153
rwrist -30.7752
rhand -13.4235 -8.90188
rfingers 7.12502
rthumb 12.685 -38.4966
lclavicle -6.75868e-015 -3.02153e-014
lhumerus -5.8241 -37.8922 110.188
lradius 25.2098
lwrist 42.1865
lhand 168.479 61.9701
lfingers 7.12502
lthumb -165.482 32.4981
rfemur -26.0367 -0.120964 11.2965
rtibia 26.577
rfoot -9.01395 -11.1458
rtoes -4.63236
lfemur -28.5469 5.62587 -8.54282
ltibia 27.9754
lfoot -9.64569 -2.63577
ltoes -19.9926
5
root -8.16272 17.8188 0.147076 -116.713 85.848 -130.691
lowerback 3.76701 1.49806 -1.43714
upperback 4.53018 2.06257 4.32659
thorax 2.35293 0.989474 5.25424
lowerneck -15.6694 -2.18015 2.07203
upperneck 38.7261 -0.381771 -4.54224
head 16.5403 0.0532979 -2.29348
rclavicle -5.96354e-015 -2.78299e-014
rhumerus -0.560953 -2.77896 -100.112
rradius 18.8128
rwrist -30.7679
rhand -13.5399 -8.87622
rfingers 7.12502
rthumb 12.5727 -38.4779
lclavicle -5.96354e-015 -2.78299e-014
lhumerus -5.963 -37.4885 110.368
lradius 25.1151
lwrist 41.8097
lhand 168.274 61.9013
lfingers 7.12502
lthumb -165.679 32.4152
rfemur -26.027 -0.0102412 11.3196
rtibia 26.5597
rfoot -9.15334 -11.1981
rtoes -3.86947
lfemur -28.5998 5.66694 -8.47782
ltibia 27.9943
lfoot -9.72618 -2.61012
ltoes -20.4923
6
root -8.16111 17.8191 0.147637 -116.478 85.7839 -130.484
lowerback 3.73105 1.48535 -1.30807
upperback 4.512 2.04718 4.27996
thorax 2.36091 0.985589 5.13274
lowerneck -15.6328 -2.18102 2.12812
upperneck 38.7322 -0.420201 -4.49349
head 16.5316 0.0530012 -2.28827
rclavicle 2.78299e-015 -1.98785e-014
rhumerus -0.492408 -3.19442 -100.246
rradius 18.644
rwrist -30.3542
rhand -13.4471 -8.82407
rfingers 7.12502
rthumb 12.6622 -38.4202
lclavicle 2.78299e-015 -1.98785e-014
lhumerus -6.03123 -37.2142 110.419
lradius 25.0201
lwrist 41.5761
lhand 168.138 61.9313
lfingers 7.12502
lthumb -165.81 32.436
rfemur -26.0472 -0.00589561 11.3857
rtibia 26.5612
rfoot -9.22907 -11.2119
rtoes -3.40475
lfemur -28.6301 5.6762 -8.40855
ltibia 27.9934
lfoot -9.69935 -2.58703
ltoes -20.7582
7
root -8.15877 17.8197 0.148077 -116.304 85.8164 -130.321
lowerback 3.6971 1.47208 -1.30978
upperback 4.52056 2.02844 4.24867
thorax 2.39155 0.975558 5.10261
lowerneck -15.6397 -2.16246 2.13356
upperneck 38.741 -0.400285 -4.47775
head 16.5392 0.0638748 -2.27925
rclavicle 2.0276e-014 2.78299e-014
rhumerus -0.384174 -3.72052 -100.336
rradius 18.4416
rwrist -30.0106
rhand -13.1418 -8.66858
rfingers 7.12502
rthumb 12.9565 -38.2463
lclavicle 2.0276e-014 2.78299e-014
lhumerus -6.00922 -37.121 110.359
lradius 25.0261
lwrist 41.5577
lhand 168.063 62.0118
lfingers 7.12502
lthumb -165.882 32.5114
rfemur -26.0746 -0.0925189 11.4055
rtibia 26.5608
rfoot -9.17668 -11.1988
rtoes -3.47268
lfemur -28.6213 5.70851 -8.44144
ltibia 27.9873
lfoot -9.58839 -2.62146
ltoes -20.5414
8
root -8.15651 17.821 0.149101 -116.152 85.868 -130.16
lowerback 3.68281 1.47278 -1.36399
upperback 4.54885 2.02796 4.23312
thorax 2.42791 0.972984 5.11841
lowerneck -15.6652 -2.1511 2.13118
upperneck 38.7267 -0.378729 -4.49668
head 16.5392 0.0683013 -2.28365
rclavicle -2.34566e-014 -4.37326e-014
rhumerus -0.247086 -4.35431 -100.381
rradius 18.2866
rwrist -29.9754
rhand -12.5796 -8.39629
rfingers 7.12502
rthumb 13.4984 -37.9388
lclavicle -2.34566e-014 -4.37326e-014
lhumerus -5.9615 -37.0908 110.311
lradius 25.0529
lwrist 41.5824
lhand 167.958 62.0835
lfingers 7.12502
lthumb -165.983 32.5761
rfemur -26.0693 -0.0847988 11.387
rtibia 26.5595
rfoot -9.05928 -11.2391
rtoes -4.01203
lfemur -28.587 5.71425 -8.48384
ltibia 27.9809
lfoot -9.58601 -2.59743
ltoes -20.2545
9
root -8.1551 17.8207 0.14959 -115.818 85.8613 -129.806
lowerback 3.68426 1.47075 -1.36165
upperback 4.57573 2.02569 4.24
thorax 2.45515 0.971411 5.1251
lowerneck -15.6859 -2.13416 2.13811
upperneck 38.7267 -0.343802 -4.5276
head 16.5463 0.0789033 -2.29288
rclavicle 1.59028e-014 2.06736e-014
rhumerus -0.178264 -4.60841 -100.385
rradius 18.2469
rwrist -30.0411
rhand -12.2264 -8.30826
rfingers 7.12502
rthumb 13.8388 -37.8279
lclavicle 1.59028e-014 2.06736e-014
lhumerus -5.88835 -37.0189 110.293
lradius 25.0058
lwrist 41.5324
lhand 167.989 62.013
lfingers 7.12502
lthumb -165.954 32.5076
rfemur -26.0423 -0.0565616 11.4131
rtibia 26.5622
rfoot -8.96327 -11.2532
rtoes -4.71625
lfemur -28.5491 5.69273 -8.44721
ltibia 27.9682
lfoot -9.70722 -2.53571
ltoes -20.1844
10
root -8.15407 17.8201 0.150956 -115.104 85.8182 -129.081
lowerback 3.68132 1.45923 -1.32754
upperback 4.59154 2.01153 4.26606
thorax 2.47487 0.964907 5.13395
lowerneck -15.7181 -2.11252 2.10775
upperneck 38.7759 -0.296133 -4.52413
head 16.5837 0.0957719 -2.27944
rclavicle 3.29983e-014 4.85035e-014
rhumerus -0.229526 -4.27729 -100.366
rradius 18.346
rwrist -30.0398
rhand -12.3968 -8.49067
rfingers 7.12502
rthumb 13.6746 -38.0214
lclavicle 3.29983e-014 4.85035e-014
lhumerus -5.81833 -36.8808 110.29
lradius 24.9343
lwrist 41.3446
lhand 168.249 61.9143
lfingers 7.12502
lthumb -165.704 32.4265
rfemur -26.0293 -0.0637725 11.4958
rtibia 26.5543
rfoot -8.95755 -11.2261
rtoes -4.83327
lfemur -28.5216 5.7041 -8.35565
ltibia 27.9611
lfoot -9.76341 -2.51865
ltoes -20.1991
11
root -8.1532 17.8198 0.153097 -114.726 85.8086 -128.721
lowerback 3.64299 1.45205 -1.39852
upperback 4.60609 2.00087 4.32788
thorax 2.50875 0.956345 5.24127
lowerneck -15.7778 -2.10409 2.04184
upperneck 38.8285 -0.241416 -4.55827
head 16.6307 0.104968 -2.27562
rclavicle -9.93923e-015 -2.06736e-014
rhumerus -0.290006 -3.91071 -100.279
rradius 18.4632
rwrist -30.0555
rhand -12.5476 -8.66836
rfingers 7.12502
rthumb 13.5292 -38.2089
lclavicle -9.93923e-015 -2.06736e-014
lhumerus -5.74646 -36.7343 110.342
lradius 24.884
lwrist 41.1571
lhand 168.467 61.9941
lfingers 7.12502
lthumb -165.493 32.5213
rfemur -26.0461 -0.075172 11.5337
rtibia 26.5368
rfoot -8.93703 -11.2081
rtoes -4.93563
lfemur -28.5364 5.71862 -8.31963
ltibia 27.9691
lfoot -9.77245 -2.49277
ltoes -20.5466
12
root -8.15231 17.8204 0.154033 -114.897 85.8304 -128.918
lowerback 3.59893 1.45407 -1.50754
upperback 4.61424 2.0016 4.38692
thorax 2.53709 0.952356 5.36721
lowerneck -15.8148 -2.11428 1.9796
upperneck 38.8529 -0.205839 -4.62248
head 16.6558 0.102361 -2.28796
rclavicle 1.59028e-015 2.38542e-015
rhumerus -0.266288 -3.96127 -100.195
rradius 18.4227
rwrist -29.9493
rhand -12.4879 -8.67821
rfingers 7.12502
rthumb 13.5868 -38.2149
lclavicle 1.59028e-015 2.38542e-015
lhumerus -5.72782 -36.6803 110.456
lradius 24.9118
lwrist 40.8818
lhand 168.646 62.3813
lfingers 7.12502
lthumb -165.321 32.921
rfemur -26.0608 -0.0443961 11.4962
rtibia 26.5205
rfoot -8.89228 -11.2278
rtoes -5.33188
lfemur -28.5702 5.76329 -8.36492
ltibia 27.9809
lfoot -9.80432 -2.54363
ltoes -20.9639
13
root -8.15148 17.8218 0.154516 -115.223 85.8115 -129.269
lowerback 3.58109 1.44281 -1.47362
upperback 4.60066 1.98683 4.37985
thorax 2.53563 0.94604 5.3409
lowerneck -15.7962 -2.12618 1.94699
upperneck 38.8588 -0.209202 -4.62351
head 16.6544 0.0967967 -2.28289
rclavicle 3.26007e-014 2.62396e-014
rhumerus -0.24788 -4.04705 -100.226
rradius 18.3432
rwrist -29.8294
rhand -12.5396 -8.56927
rfingers 7.12502
rthumb 13.537 -38.1092
lclavicle 3.26007e-014 2.62396e-014
lhumerus -5.76788 -36.7133 110.518
lradius 24.9876
lwrist 40.4865
lhand 168.974 62.9861
lfingers 7.12502
lthumb -165.005 33.549
rfemur -26.0741 -0.0718446 11.4994
rtibia 26.5129
rfoot -8.93255 -11.2176
rtoes -5.34793
lfemur -28.6067 5.80691 -8.38699
ltibia 27.9798
lfoot -9.80309 -2.63521
ltoes -21.2542
14
root -8.15074 17.8221 0.155958 -115.356 85.7613 -129.429
lowerback 3.56285 1.42213 -1.41242
upperback 4.59731 1.95993 4.35737
thorax 2.54748 0.934319 5.28339
lowerneck -15.7788 -2.10311 1.99214
upperneck 38.8346 -0.190236 -4.62974
head 16.6376 0.109394 -2.28946
rclavicle -3.18055e-015 9.54166e-015
rhumerus -0.213472 -4.10174 -100.304
rradius 18.2871
rwrist -29.7176
rhand -12.5163 -8.47837
rfingers 7.12502
rthumb 13.5594 -38.0168
lclavicle -3.18055e-015 9.54166e-015
lhumerus -5.76664 -36.7944 110.471
lradius 25.0252
lwrist 40.3548
lhand 169.187 63.1951
lfingers 7.12502
lthumb -164.8 33.7735
rfemur -26.0941 -0.0901578 11.5497
rtibia 26.5101
rfoot -8.96809 -11.2547
rtoes -5.06298
lfemur -28.6458 5.8182 -8.35384
ltibia 27.9748
lfoot -9.79736 -2.62821
ltoes -21.5165
